<?xml version="1.0" encoding="UTF-8" standalone="no"?>
<!DOCTYPE svg PUBLIC "-//W3C//DTD SVG 1.1//EN"
 "http://www.w3.org/Graphics/SVG/1.1/DTD/svg11.dtd">
<!-- Generated by graphviz version 2.38.0 (20140413.2041)
 -->
<!-- Title: %3 Pages: 1 -->
<svg width="134pt" height="188pt"
 viewBox="0.00 0.00 134.00 188.00" xmlns="http://www.w3.org/2000/svg" xmlns:xlink="http://www.w3.org/1999/xlink">
<g id="graph0" class="graph" transform="scale(1 1) rotate(0) translate(4 184)">
<title>%3</title>
<polygon fill="white" stroke="none" points="-4,4 -4,-184 130,-184 130,4 -4,4"/>
<!-- 11 -->
<g id="node1" class="node"><title>11</title>
<ellipse fill="none" stroke="black" cx="63" cy="-162" rx="27" ry="18"/>
<text text-anchor="middle" x="63" y="-157.8" font-family="Times,serif" font-size="14.00">11</text>
</g>
<!-- 9 -->
<g id="node2" class="node"><title>9</title>
<ellipse fill="none" stroke="black" cx="27" cy="-90" rx="27" ry="18"/>
<text text-anchor="middle" x="27" y="-85.8" font-family="Times,serif" font-size="14.00">9</text>
</g>
<!-- 11&#45;&gt;9 -->
<g id="edge1" class="edge"><title>11&#45;&gt;9</title>
<path fill="none" stroke="black" d="M54.6504,-144.765C50.2885,-136.283 44.8531,-125.714 39.9587,-116.197"/>
<polygon fill="black" stroke="black" points="42.9904,-114.439 35.3043,-107.147 36.7654,-117.641 42.9904,-114.439"/>
</g>
<!-- 17 -->
<g id="node3" class="node"><title>17</title>
<ellipse fill="none" stroke="black" cx="99" cy="-90" rx="27" ry="18"/>
<text text-anchor="middle" x="99" y="-85.8" font-family="Times,serif" font-size="14.00">17</text>
</g>
<!-- 11&#45;&gt;17 -->
<g id="edge2" class="edge"><title>11&#45;&gt;17</title>
<path fill="none" stroke="black" d="M71.3496,-144.765C75.7115,-136.283 81.1469,-125.714 86.0413,-116.197"/>
<polygon fill="black" stroke="black" points="89.2346,-117.641 90.6957,-107.147 83.0096,-114.439 89.2346,-117.641"/>
</g>
<!-- 10 -->
<g id="node4" class="node"><title>10</title>
<ellipse fill="none" stroke="black" cx="27" cy="-18" rx="27" ry="18"/>
<text text-anchor="middle" x="27" y="-13.8" font-family="Times,serif" font-size="14.00">10</text>
</g>
<!-- 9&#45;&gt;10 -->
<g id="edge3" class="edge"><title>9&#45;&gt;10</title>
<path fill="none" stroke="black" d="M27,-71.6966C27,-63.9827 27,-54.7125 27,-46.1124"/>
<polygon fill="black" stroke="black" points="30.5001,-46.1043 27,-36.1043 23.5001,-46.1044 30.5001,-46.1043"/>
</g>
</g>
</svg>
